PathFileType	4	(X/Y/Z)	C:\Users\Biomechanik\SynologyDrive\AlexP\Athlete_03\Athlete_3_25_03_31\Walking_03\marker_experimental.trc
DataRate	CameraRate	NumFrames	NumMarkers	Units	OrigDataRate	OrigDataStartFrame	OrigNumFrames
200.000000	200.000000	4	53	mm	200.000000	123	246
Frame#	Time	GLAB			RFHD			LFHD			C7			T6			SPINMOL			SPINM2			SPINM3			T12			BELTOL			BELT2			BELT3			SACROL			SACR2			SACR3			LTHOL			LTH2			LTH3			LSHAOL			LSHA2			LSHA3			LHEE			LTOE			LM5			RTHOL			RTH2			RTH3			RSHAOL			RSHA2			RSHA3			RHEE			RTOE			RM5			STRN			XIPH			LACR			LUAOL			LUA2			LUA3			LLAOL			LLA2			LLA3			LWRR			LWRU			RACR			RUAOL			RUA2			RUA3			RLAOL			RLA2			RLA3			RWRR			RWRU			
		X1	Y1	Z1	X2	Y2	Z2	X3	Y3	Z3	X4	Y4	Z4	X5	Y5	Z5	X6	Y6	Z6	X7	Y7	Z7	X8	Y8	Z8	X9	Y9	Z9	X10	Y10	Z10	X11	Y11	Z11	X12	Y12	Z12	X13	Y13	Z13	X14	Y14	Z14	X15	Y15	Z15	X16	Y16	Z16	X17	Y17	Z17	X18	Y18	Z18	X19	Y19	Z19	X20	Y20	Z20	X21	Y21	Z21	X22	Y22	Z22	X23	Y23	Z23	X24	Y24	Z24	X25	Y25	Z25	X26	Y26	Z26	X27	Y27	Z27	X28	Y28	Z28	X29	Y29	Z29	X30	Y30	Z30	X31	Y31	Z31	X32	Y32	Z32	X33	Y33	Z33	X34	Y34	Z34	X35	Y35	Z35	X36	Y36	Z36	X37	Y37	Z37	X38	Y38	Z38	X39	Y39	Z39	X40	Y40	Z40	X41	Y41	Z41	X42	Y42	Z42	X43	Y43	Z43	X44	Y44	Z44	X45	Y45	Z45	X46	Y46	Z46	X47	Y47	Z47	X48	Y48	Z48	X49	Y49	Z49	X50	Y50	Z50	X51	Y51	Z51	X52	Y52	Z52	X53	Y53	Z53	

124	0.615	332.2914733886717	1567.098999023438	198.719467163086	281.8611450195311	1596.989990234375	261.2968750000001	289.2318115234374	1584.472534179688	123.6360931396485	107.0617599487303	1407.48388671875	198.641357421875	45.53186035156239	1240.808715820312	200.8669281005859	37.40641021728505	1199.711059570312	180.9402160644531	29.85830116271961	1193.904907226562	230.3587188720703	39.88455581665028	1136.0771484375	198.9927673339844	63.33009719848623	1068.365356445312	202.2550811767578	27.63936424255362	1030.019897460938	181.5216979980469	24.01264381408681	1029.802734375	231.9978790283203	21.33149337768545	968.6395874023438	204.9460906982422	41.88479232788077	923.4078979492188	178.8968048095703	35.12050247192373	925.7750244140625	230.4126892089844	20.47748374938956	865.931640625	204.7827301025391	235.9888610839843	637.821533203125	31.91961479187016	213.0464630126953	568.2094116210938	60.90028381347661	258.9637756347656	582.9381713867188	46.44400405883794	358.5785217285156	305.0180358886719	41.27491760253913	340.3476257324219	229.7072906494141	58.10898590087897	384.8144226074219	249.2650451660157	46.98144912719734	407.226806640625	50.50750350952151	130.3111267089845	620.0608520507812	100.7835235595704	120.5644149780275	585.2205200195312	59.90079879760746	29.06135940551768	41.86791610717762	690.8495483398438	399.0094909667969	76.50712585449207	621.7100219726562	415.0214538574219	33.69455337524403	630.83056640625	390.4062194824219	-94.72835540771494	370.9068603515625	388.6163635253906	-94.46300506591805	291.8794250488281	384.6599731445312	-132.1127471923829	323.2051391601562	374.2202758789062	-255.4965515136719	141.3651733398437	268.6850891113281	-76.58891296386724	41.8815689086914	271.5358581542969	-119.5116577148438	42.21593856811523	377.1962890625	273.7114868164061	1299.913452148438	204.5240020751954	286.4737243652343	1156.30029296875	213.6586151123047	181.4794616699218	1360.003173828125	26.12664794921878	143.953155517578	1203.92626953125	-68.93426513671872	118.2465591430663	1144.629272460938	-83.64815521240232	167.165786743164	1142.211669921875	-68.92257690429685	105.2651596069336	946.6011352539062	-112.0930099487305	55.05748367309566	889.8065185546875	-88.90625762939452	97.30178070068355	885.6625366210938	-115.5031356811523	92.87767028808592	782.1688232421875	-125.4263076782226	147.2139129638671	768.2208251953125	-70.61654663085935	188.0508575439452	1367.115234375	368.6968383789063	188.0980377197264	1227.795532226562	475.6413574218751	221.6520080566405	1171.752563476562	487.2753906250001	172.593063354492	1169.442016601562	502.4141235351563	286.4555664062498	971.17333984375	533.7048950195312	365.1874999999998	960.5776977539062	540.4922485351564	330.5852966308592	928.0556640625	525.3384399414064	409.4103088378905	883.02197265625	517.2719726562501	436.3084411621093	903.1908569335938	442.5531616210938	
125	0.62	339.4183349609373	1567.220703125	197.1409912109376	288.9613037109373	1597.148193359375	259.6822814941407	296.3927307128905	1584.558471679688	122.0270767211915	114.3227310180663	1407.462646484375	197.0275268554688	52.98880767822254	1240.749145507812	199.5183410644531	44.8696174621581	1199.64599609375	179.6598815917969	37.38500976562489	1193.871826171875	229.0796203613281	47.42229461669911	1136.031494140625	197.7716064453125	70.90250396728504	1068.373168945312	201.1513214111328	35.55981063842763	1030.011840820312	180.5097961425781	31.97645950317372	1029.756225585938	230.9802398681641	29.31012153625478	968.6126098632812	203.8917541503906	49.51687240600577	923.3564453125	177.9748687744141	42.89021301269521	925.5645751953125	229.4601745605469	28.40620040893545	865.735595703125	203.7756805419922	244.368179321289	638.6843872070312	30.86475944519048	221.0961151123047	568.857177734375	59.18241500854496	267.2070617675781	583.6989135742188	45.2420158386231	364.8729248046875	305.3873291015625	40.51599121093756	345.564697265625	230.3548431396485	57.18530273437506	390.291748046875	249.2961883544922	46.40940856933601	408.6142578125	51.03202056884768	130.2998352050782	622.6007080078125	96.26978302001957	120.80623626709	586.7435913085938	56.32615280151371	29.36511421203624	49.74870300292957	690.647216796875	398.0914306640625	84.31216430664051	621.6138916015625	414.4252014160156	41.59438705444325	630.6449584960938	389.6198425292969	-88.22410583496104	372.3590698242188	388.80517578125	-89.06604766845712	293.3404235839844	384.8224182128906	-126.2574996948243	325.1849670410156	374.3553466796875	-251.9618682861329	145.6025085449218	269.2306213378906	-76.61370086669928	41.63873672485351	271.4779357910156	-118.606056213379	42.57450485229491	377.3479919433594	281.0811157226561	1300.07861328125	203.0661773681641	294.1195068359374	1156.522583007812	212.3020477294922	188.7712249755859	1359.770874023438	24.56960868835453	151.5567626953124	1203.432250976562	-70.22133636474607	125.9787597656249	1144.080078125	-84.89582824707028	174.8887786865234	1141.757934570312	-70.11825561523435	113.2760314941406	946.0452270507812	-113.0913696289062	62.9580917358398	889.3179321289062	-89.98788452148436	105.2684555053711	885.1148681640625	-116.4475173950195	100.8126373291015	781.6373901367188	-126.2911529541015	154.889663696289	767.649169921875	-71.20790863037107	195.2471771240233	1367.207763671875	367.2285461425782	195.0285339355467	1227.7138671875	474.0296325683594	228.3830108642576	1171.5634765625	485.6217651367188	179.3260650634764	1169.375244140625	500.7528991699219	292.4198913574217	970.6785278320312	532.117919921875	371.0827331542967	959.8403930664062	539.3508911132814	336.4505920410155	927.4397583007812	523.9545288085939	415.2069091796873	882.1881713867188	516.3011474609376	442.459259033203	902.2470703125	441.6902465820313	
126	0.625	346.5581054687498	1567.451171875	195.5530395507813	296.0736389160155	1597.407836914062	258.0610351562501	303.5675354003905	1584.760375976562	120.4103012084962	121.5963439941405	1407.543090820312	195.3936309814453	60.46342468261707	1240.786010742188	198.1523895263672	52.35109710693349	1199.6787109375	178.3669281005859	44.92570114135731	1193.943115234375	227.7900390625	54.97646713256825	1136.085693359375	196.544189453125	78.48186492919911	1068.489379882812	200.0583953857422	43.5153694152831	1030.136474609375	179.5630950927734	39.98020553588857	1029.846069335938	230.0323181152344	37.32355117797842	968.71728515625	202.9011383056641	57.16550445556631	923.4057006835938	177.0737915039062	50.6901741027831	925.4328002929688	228.5284271240234	36.37996292114249	865.6241455078125	202.7716217041016	252.5646667480468	639.6305541992188	29.81510353088384	229.0083465576172	569.6051635742188	57.51702499389653	275.2909545898437	584.5465087890625	44.03187561035161	371.1994934082031	305.9303894042969	39.58761596679695	350.7771301269531	231.1841583251953	55.9913291931153	395.7727966308594	249.49951171875	45.67925262451179	409.8363342285156	51.65295410156253	130.1940917968751	624.9127197265625	91.89124298095707	121.0175781250001	588.0735473632812	52.88668060302738	29.61225128173839	57.77550506591786	690.4194946289062	397.1327209472656	92.31475067138661	621.5200805664062	413.8134460449219	49.69565200805653	630.424072265625	388.8033447265625	-81.41756439208994	373.8493347167969	388.9907531738281	-83.38634490966805	294.8558044433594	385.0013427734375	-120.091049194336	327.2176208496094	374.4659729003906	-248.0241241455079	150.012466430664	269.7199401855468	-76.59635162353521	41.40203475952148	271.4039001464844	-117.6402664184571	43.00034713745116	377.4753112792969	288.4644470214843	1300.36328125	201.5810241699219	301.7872009277343	1156.862670898438	210.9120483398438	196.0689239501952	1359.640869140625	22.99046134948734	159.1899871826171	1203.03369140625	-71.52406311035153	133.7533721923828	1143.621826171875	-86.16263580322263	182.6515655517578	1141.404663085938	-71.32659912109372	121.3884353637695	945.5633544921875	-114.0958557128906	70.98037719726558	888.8867797851562	-91.07619476318358	113.3606033325195	884.6383056640625	-117.3890151977539	108.917236328125	781.1747436523438	-127.1439590454101	162.7287139892578	767.174560546875	-71.77471160888669	202.4598236083983	1367.399047851562	365.7442016601563	201.9411315917967	1227.722778320312	472.3996276855469	235.0841979980467	1171.457275390625	483.9526367187501	186.0276031494139	1169.401733398438	499.0719909667969	298.2787780761717	970.2344970703125	530.51806640625	376.8632812499998	959.1111450195312	538.2135009765626	342.185333251953	926.844970703125	522.5749511718751	420.8483276367186	881.3375854492188	515.3574218750001	448.4736328124999	901.2493896484375	440.8540039062501	
127	0.63	353.7090759277342	1567.787719726562	193.9571685791016	303.1962890624998	1597.765869140625	256.4351806640626	310.7542724609374	1585.075073242188	118.7874755859376	128.8811492919921	1407.72314453125	193.7438049316407	67.95145416259754	1240.915893554688	196.7738037109375	59.84656143188466	1199.806518554688	177.0660705566406	52.4752960205077	1194.117431640625	226.4950103759766	62.54029464721669	1136.237548828125	195.3160247802734	86.06081390380848	1068.712890625	198.9820556640625	51.48861312866201	1030.401123046875	178.6853790283203	48.00769042968739	1030.079833984375	229.1572875976562	45.35158920288077	968.9615478515625	201.9785461425781	64.82380676269523	923.5557250976562	176.1984710693359	58.51312637329092	925.3809204101562	227.6233062744141	44.38965225219718	865.5987548828125	201.7757263183594	260.5769958496093	640.650390625	28.76630020141606	236.7787628173828	570.4417114257812	55.8933601379395	283.2143859863281	585.471435546875	42.81016921997075	377.5396118164062	306.624267578125	38.50114059448249	355.9625244140625	232.1717224121094	54.52727890014655	401.2387084960938	249.8528747558594	44.80696868896491	410.9223022460938	52.34712600708011	130.0081176757813	627.0064086914062	87.69751739501957	121.2067413330079	589.233154296875	49.62662887573246	29.80352401733409	65.94577789306629	690.1608276367188	396.1390991210938	100.5171661376952	621.42529296875	413.1949157714844	58.00091934204091	630.16064453125	387.9652099609375	-74.29185485839854	375.3732604980469	389.1763916015625	-77.40637969970712	296.4224548339844	385.2006225585938	-113.5942535400391	329.2982177734375	374.5530090332031	-243.6531829833985	154.5958404541015	270.1455383300781	-76.51441955566412	41.18264389038085	271.311279296875	-116.6091003417969	43.51021194458007	377.57373046875	295.857696533203	1300.766845703125	200.0716857910157	309.4691162109374	1157.317504882812	209.4923553466797	203.3724060058593	1359.615478515625	21.39352226257328	166.8525238037109	1202.735717773438	-72.84088897705075	141.5697326660156	1143.260131835938	-87.4476623535156	190.4529418945312	1141.156494140625	-72.54520416259763	129.6002502441406	945.1611328125	-115.1053161621093	79.12270355224605	888.5177612304688	-92.17057037353514	121.5773544311523	884.2380981445312	-118.3266830444336	117.1908340454101	780.7857666015625	-127.9837493896484	170.7314453124999	766.80322265625	-72.31730651855466	209.6863555908202	1367.6923828125	364.2461242675782	208.8337402343748	1227.826538085938	470.7539978027344	241.7552947998045	1171.43896484375	482.2704467773438	192.6972198486326	1169.525146484375	497.3725280761719	304.0331115722655	969.8474731445312	528.9071044921875	382.5290527343748	958.394287109375	537.0795898437501	347.788604736328	926.277099609375	521.2012939453126	426.3319702148436	880.473388671875	514.4411621093751	454.3496093749999	900.20166015625	440.0456542968751	
